<svg xmlns="http://www.w3.org/2000/svg" width="60" height="60" viewBox="0 0 60 60"><g fill="none" fill-rule="evenodd"><path fill="#FFF" d="M10.926 29.62c2.275-3.408 6.183-5.625 10.585-5.548.706.012 1.397.083 2.068.207 1.357-4.73 3.897-9.192 7.623-12.917 7.602-7.6 18.268-10.27 28.022-8.008 2.262 9.753-.407 20.42-8.01 28.02-3.724 3.726-8.186 6.267-12.915 7.623.124.67.195 1.362.207 2.068.077 4.4-2.14 8.31-5.55 10.584.365-1.134.57-2.34.593-3.59.09-5.164-2.975-9.647-7.418-11.612-1.966-4.444-6.45-7.51-11.613-7.418-1.252.02-2.457.227-3.59.59z"/><path fill="#00CBFD" d="M45.413 16.166c1.547 1.547 4.056 1.547 5.603 0 1.547-1.547 1.547-4.056 0-5.603-1.547-1.548-4.056-1.548-5.603 0-1.548 1.547-1.548 4.056 0 5.603zM32.605 28.974c2.43 2.432 6.374 2.432 8.805 0 2.432-2.432 2.432-6.374 0-8.806-2.43-2.43-6.374-2.43-8.805 0-2.432 2.432-2.432 6.374 0 8.806z"/><path fill="#FFF" d="M7.652 53.927s10.883-2.078 13.315-4.51c2.43-2.43 2.43-6.373 0-8.805-2.432-2.432-6.374-2.432-8.806 0-2.43 2.432-4.508 13.315-4.508 13.315z"/><path fill="#007BDF" d="M20.356 25.204c.636.01 1.265.074 1.88.188.575.107 1.135-.24 1.296-.8 1.336-4.66 3.828-8.922 7.334-12.428 6.962-6.962 16.83-9.807 26.27-7.86 1.948 9.44-.896 19.31-7.858 26.27-3.507 3.507-7.767 6-12.428 7.336-.56.16-.907.72-.8 1.294.113.616.177 1.245.188 1.88.05 2.83-.95 5.496-2.716 7.56.01-.19.018-.377.022-.565.093-5.367-2.964-10.21-7.697-12.485-2.277-4.734-7.118-7.79-12.484-7.697-.19.003-.377.01-.564.02 2.062-1.766 4.728-2.764 7.556-2.714zm30.523 6.972C58.57 24.486 61.6 13.5 59.19 3.1c-.098-.422-.427-.75-.848-.848-10.4-2.413-21.385.62-29.077 8.31-3.54 3.54-6.124 7.8-7.62 12.456-.414-.045-.83-.07-1.25-.078-4.68-.082-8.996 2.23-11.545 6.053-.595.89.267 2.033 1.287 1.706 1.046-.337 2.143-.52 3.265-.54 4.595-.08 8.73 2.614 10.556 6.746.114.257.32.463.578.577 4.132 1.827 6.824 5.96 6.744 10.556-.02 1.122-.202 2.218-.537 3.264-.328 1.02.814 1.882 1.706 1.288 3.82-2.55 6.133-6.866 6.05-11.546-.006-.42-.032-.836-.077-1.248 4.657-1.498 8.915-4.08 12.456-7.622z"/><path fill="#007BDF" d="M51.817 16.966c1.99-1.99 1.99-5.215 0-7.204-1.99-1.99-5.215-1.99-7.205 0-1.99 1.99-1.99 5.215 0 7.204 1.99 1.99 5.215 1.99 7.205 0zm-5.604-5.603c1.105-1.105 2.897-1.105 4.003 0 1.105 1.105 1.105 2.897 0 4.002-1.106 1.106-2.898 1.106-4.003 0-1.105-1.105-1.105-2.897 0-4.002zm-4.002 18.41c2.874-2.872 2.874-7.53 0-10.405-2.873-2.874-7.532-2.874-10.406 0-2.874 2.874-2.874 7.533 0 10.406 2.874 2.874 7.533 2.874 10.407 0zm-8.805-8.804c1.99-1.99 5.215-1.99 7.205 0 1.99 1.988 1.99 5.214 0 7.203-1.99 1.99-5.215 1.99-7.205 0-1.99-1.99-1.99-5.215 0-7.204zM7.865 55.04l.607-.123c.478-.098 1.01-.212 1.583-.34 1.638-.37 3.277-.782 4.81-1.23 3.388-.992 5.77-1.997 6.902-3.13 2.874-2.873 2.874-7.532 0-10.406-2.874-2.872-7.533-2.872-10.406 0-1.13 1.133-2.136 3.515-3.127 6.902-.45 1.535-.862 3.173-1.23 4.81-.13.574-.243 1.106-.342 1.584-.058.29-.1.496-.12.61-.15.784.54 1.473 1.324 1.323zm1.347-3.02c.358-1.595.76-3.19 1.194-4.672.88-3.008 1.794-5.174 2.556-5.936 1.99-1.99 5.215-1.99 7.204 0 1.99 1.99 1.99 5.215 0 7.205-.762.762-2.928 1.675-5.936 2.556-1.483.434-3.077.836-4.67 1.194l-.448.1.1-.447zM2.267 46.244L0 55.647l2.2.53 2.268-9.402M20.278 55.924l-4.815.46.215 2.253 4.814-.46"/></g></svg>