<svg xmlns="http://www.w3.org/2000/svg" width="144" height="60" viewBox="0 0 144 60"><path fill="#6772E5" fill-rule="evenodd" d="M144 30.96c0-10.24-4.96-18.32-14.44-18.32-9.52 0-15.28 8.08-15.28 18.24 0 12.04 6.8 18.12 16.56 18.12 4.76 0 8.36-1.08 11.08-2.6v-8c-2.72 1.36-5.84 2.2-9.8 2.2-3.88 0-7.32-1.36-7.76-6.08h19.56c0-.52.08-2.6.08-3.56zm-19.76-3.8c0-4.52 2.76-6.4 5.28-6.4 2.44 0 5.04 1.88 5.04 6.4h-10.32zm-25.4-14.52c-3.92 0-6.44 1.84-7.84 3.12l-.52-2.48h-8.8v46.64l10-2.12.04-11.32C93.16 47.52 95.28 49 98.8 49c7.16 0 13.68-5.76 13.68-18.44-.04-11.6-6.64-17.92-13.64-17.92zm-2.4 27.56c-2.36 0-3.76-.84-4.72-1.88l-.04-14.84c1.04-1.16 2.48-1.96 4.76-1.96 3.64 0 6.16 4.08 6.16 9.32 0 5.36-2.48 9.36-6.16 9.36zM67.92 10.28l10.04-2.16V0L67.92 2.12v8.16zm0 3.04h10.04v35H67.92v-35zm-10.76 2.96l-.64-2.96h-8.64v35h10V24.6c2.36-3.08 6.36-2.52 7.6-2.08v-9.2c-1.28-.48-5.96-1.36-8.32 2.96zm-20-11.64L27.4 6.72l-.04 32.04c0 5.92 4.44 10.28 10.36 10.28 3.28 0 5.68-.6 7-1.32V39.6c-1.28.52-7.6 2.36-7.6-3.56v-14.2h7.6v-8.52h-7.6l.04-8.68zM10.12 23.48c0-1.56 1.28-2.16 3.4-2.16 3.04 0 6.88.92 9.92 2.56v-9.4c-3.32-1.32-6.6-1.84-9.92-1.84C5.4 12.64 0 16.88 0 23.96 0 35 15.2 33.24 15.2 38c0 1.84-1.6 2.44-3.84 2.44-3.32 0-7.56-1.36-10.92-3.2v9.52c3.72 1.6 7.48 2.28 10.92 2.28 8.32 0 14.04-4.12 14.04-11.28-.04-11.92-15.28-9.8-15.28-14.28z"/></svg>