<svg xmlns="http://www.w3.org/2000/svg" width="24" height="24" viewBox="0 0 32 32"><path fill="currentColor" fill-rule="evenodd" d="M16 0C7.177 0 0 7.177 0 16s7.177 16 16 16 16-7.177 16-16S24.823 0 16 0zm7.74 22.482c.347.346.347.91 0 1.257-.174.173-.402.26-.63.26-.227 0-.454-.087-.627-.26l-6.48-6.483-6.485 6.482c-.174.173-.402.26-.63.26-.227 0-.454-.087-.627-.26-.347-.348-.347-.912 0-1.258L14.744 16 8.26 9.517c-.347-.347-.347-.91 0-1.257.348-.347.912-.347 1.258 0l6.484 6.482 6.48-6.482c.348-.347.91-.347 1.258 0 .347.347.347.91 0 1.257L17.257 16l6.483 6.482z"/></svg>