<svg xmlns="http://www.w3.org/2000/svg" width="24" height="24" viewBox="0 0 32 32"><path fill="currentColor" fill-rule="evenodd" d="M16 0C7.177 0 0 7.177 0 16s7.177 16 16 16 16-7.177 16-16S24.823 0 16 0zm8.674 9.448c-.89.736-5.042 4.62-8.515 9.173-1.4 1.833-2.73 4.267-3.097 4.764-.297.296-1.182.334-1.515 0-.13-.13-3.546-5.72-4.327-6.98-.098-.16-.342-.606-.146-.913.375-.586.99-.318 1.574.33 2.207 2.454 3.203 3.32 3.203 3.32.002 0 3.887-4.436 11.592-10.3.968-.764 1.445-.43 1.545-.056.06.217-.086.476-.313.664z"/></svg>