<svg xmlns="http://www.w3.org/2000/svg" width="16" height="16" viewBox="0 0 32 32"><path fill="currentColor" fill-rule="evenodd" d="M16 0C7.163 0 0 7.163 0 16s7.163 16 16 16 16-7.163 16-16S24.837 0 16 0zm0 1.024c8.257 0 14.976 6.72 14.976 14.976 0 8.257-6.72 14.976-14.976 14.976-8.255 0-14.97-6.72-14.97-14.976C1.03 7.743 7.745 1.024 16 1.024zm0 9.856c-1.06 0-1.92.86-1.92 1.92v11.52c0 1.06.86 1.92 1.92 1.92s1.92-.86 1.92-1.92V12.8c0-1.06-.86-1.92-1.92-1.92zm0-1.28c1.06 0 1.92-.86 1.92-1.92S17.06 5.76 16 5.76s-1.92.86-1.92 1.92S14.94 9.6 16 9.6z"/></svg>