<svg xmlns="http://www.w3.org/2000/svg" width="155" height="60" viewBox="0 0 155 60"><path fill="#F90" fill-rule="evenodd" d="M20.198 57.575l-9.083-3.258V41.004l9.083 3.095v13.475zm1.665 0l9.083-3.258V41.004L21.863 44.1v13.475zM12.048 40.01l9.193-2.59 8.524 2.75-8.523 2.893-9.192-3.054zm-2.664-1.033L.302 35.72V22.405L9.384 25.5v13.477zm1.666 0l9.083-3.258V22.405L11.05 25.5v13.477zM1.235 21.41l9.193-2.587 8.523 2.748-8.522 2.895-9.193-3.055zm29.343 17.567l-9.083-3.258V22.405l9.083 3.094v13.477zm1.666 0l9.083-3.258V22.405L32.244 25.5v13.477zM22.43 21.41l9.19-2.587 8.524 2.748-8.523 2.895-9.19-3.055zm18.96-1.032L32.31 17.12V3.81l9.083 3.094v13.476zm1.667 0l9.083-3.257V3.81l-9.083 3.094v13.476zM33.242 2.812L42.434.224l8.524 2.748-8.524 2.894-9.192-3.054zm29.343 17.566l-9.083-3.257V3.81l9.083 3.094v13.476zm1.665 0l9.084-3.257V3.81L64.25 6.902v13.476zM54.435 2.812L63.628.224l8.523 2.748-8.522 2.894-9.193-3.054z"/><path fill-rule="evenodd" d="M142.743 53.115c-.014-.594-.112-1.122-.293-1.584-.182-.46-.49-.854-.92-1.18-.434-.324-.955-.487-1.562-.487-.817 0-1.51.294-2.078.882-.57.587-.89 1.377-.96 2.37h5.813zm-84.78-4.212l-3.05 10.6h-1.326l-2.375-7.873-2.178 7.872h-1.352l-3.17-10.6h1.638l2.31 7.9 2.2-7.9h1.21l2.39 7.925 2.373-7.924h1.33zm8.44 7.437l1.537.316c-.28.906-.824 1.657-1.634 2.25-.81.594-1.763.89-2.86.89-1.446 0-2.615-.508-3.51-1.528-.893-1.018-1.34-2.354-1.34-4.007 0-1.687.464-3.05 1.393-4.09.928-1.04 2.094-1.56 3.498-1.56 1.384 0 2.496.478 3.337 1.435.842.96 1.274 2.39 1.294 4.3h-7.694c0 1.602.335 2.682 1.005 3.243.67.56 1.38.84 2.126.84 1.348 0 2.297-.697 2.848-2.088zm4.68 3.162h-.794v-14.31h1.65v5.478c.754-1.374 1.793-2.06 3.12-2.06 1.212 0 2.23.48 3.05 1.44.82.958 1.23 2.35 1.23 4.18 0 1.575-.404 2.896-1.21 3.964-.807 1.07-1.857 1.603-3.15 1.603-1.437 0-2.54-.683-3.31-2.048l-.587 1.752zm12.464-2.746l1.574-.326c.352 1.332 1.457 1.997 3.32 1.997.684 0 1.265-.153 1.74-.46.477-.307.715-.74.715-1.298 0-.83-.606-1.358-1.817-1.58l-2.233-.426c-.874-.168-1.57-.496-2.087-.986-.517-.49-.776-1.137-.776-1.942 0-.888.353-1.632 1.06-2.23.705-.598 1.655-.897 2.85-.897 2.3 0 3.72.898 4.257 2.695l-1.51.325c-.435-1.1-1.325-1.652-2.673-1.652-.67 0-1.22.138-1.65.413-.43.276-.645.66-.645 1.155 0 .78.55 1.27 1.647 1.472l2.062.38c2.16.39 3.24 1.44 3.24 3.142 0 .972-.4 1.76-1.206 2.358-.804.6-1.874.9-3.21.9-2.512 0-4.065-1.015-4.66-3.042zm17.858-.416l1.535.316c-.28.906-.824 1.657-1.634 2.25-.81.594-1.763.89-2.86.89-1.446 0-2.616-.508-3.51-1.528-.893-1.018-1.34-2.354-1.34-4.007 0-1.687.464-3.05 1.394-4.09.93-1.04 2.095-1.56 3.5-1.56 1.382 0 2.494.478 3.336 1.435.842.96 1.273 2.39 1.293 4.3h-7.694c0 1.602.336 2.682 1.005 3.243.672.56 1.38.84 2.127.84 1.347 0 2.296-.697 2.848-2.088zm5.142 3.162h-1.652v-10.6h1.447v2.472c.51-1.158 1.022-1.907 1.536-2.25.513-.343 1.04-.515 1.577-.515.168 0 .385.012.65.037v1.575h-.334c-.907 0-1.66.337-2.26 1.01-.6.675-.92 1.56-.963 2.66v5.61zm13.814-10.6l-3.658 10.6h-1.71l-3.783-10.6h1.826l2.942 8.616 2.92-8.615h1.463zm1.32-3.71h1.768v1.83h-1.767v-1.83zm.078 3.71h1.65v10.6h-1.65v-10.6zm10.278 6.888l1.484.262c-.21 1.17-.674 2.088-1.394 2.75-.72.664-1.618.995-2.695.995-1.46 0-2.573-.54-3.338-1.618-.765-1.08-1.148-2.396-1.148-3.95 0-1.612.404-2.95 1.21-4.02.808-1.067 1.907-1.6 3.298-1.6 1.154 0 2.078.344 2.774 1.035.696.69 1.127 1.58 1.294 2.675l-1.484.283c-.28-1.75-1.125-2.625-2.536-2.625-.907 0-1.606.386-2.094 1.16-.49.77-.734 1.772-.734 3.002 0 1.356.243 2.41.728 3.16.486.75 1.168 1.127 2.05 1.127 1.36 0 2.222-.88 2.586-2.637zm10.797.55l1.535.316c-.28.906-.823 1.657-1.634 2.25-.81.594-1.763.89-2.86.89-1.445 0-2.615-.508-3.51-1.528-.893-1.018-1.34-2.354-1.34-4.007 0-1.687.464-3.05 1.394-4.09.93-1.04 2.095-1.56 3.5-1.56 1.382 0 2.495.478 3.336 1.435.842.96 1.273 2.39 1.294 4.3h-7.693c0 1.602.335 2.682 1.005 3.243.67.56 1.378.84 2.125.84 1.347 0 2.296-.697 2.848-2.088zm2.647.416l1.575-.326c.35 1.332 1.456 1.997 3.317 1.997.686 0 1.266-.153 1.742-.46.476-.307.714-.74.714-1.298 0-.83-.605-1.358-1.817-1.58l-2.232-.426c-.874-.168-1.57-.496-2.087-.986-.516-.49-.774-1.137-.774-1.942 0-.888.352-1.632 1.06-2.23.704-.598 1.654-.897 2.85-.897 2.3 0 3.718.898 4.256 2.695l-1.51.325c-.433-1.1-1.324-1.652-2.672-1.652-.67 0-1.22.138-1.65.413-.43.276-.645.66-.645 1.155 0 .78.55 1.27 1.648 1.472l2.063.38c2.16.39 3.24 1.44 3.24 3.142 0 .972-.402 1.76-1.206 2.358-.805.6-1.875.9-3.21.9-2.512 0-4.065-1.015-4.66-3.042zM108.26 26.25v-2.546c.003-.387.294-.645.646-.645l11.41-.002c.366 0 .66.266.66.643v2.185c-.004.366-.312.844-.86 1.602l-5.91 8.44c2.193-.052 4.514.276 6.508 1.397.45.253.57.627.605.994v2.716c0 .375-.41.808-.84.583-3.513-1.84-8.174-2.042-12.058.022-.397.21-.812-.217-.812-.59v-2.583c0-.414.008-1.12.425-1.75l6.848-9.825h-5.963c-.364 0-.657-.26-.66-.642zM67.425 42.152h-3.472c-.33-.022-.594-.27-.62-.587l.002-17.817c0-.357.3-.642.67-.642h3.233c.338.017.61.273.63.598v2.326h.066c.842-2.25 2.43-3.3 4.57-3.3 2.17 0 3.53 1.05 4.504 3.3.842-2.25 2.754-3.3 4.795-3.3 1.46 0 3.047.6 4.02 1.95 1.1 1.5.874 3.675.874 5.587l-.003 11.244c0 .356-.3.642-.67.642h-3.467c-.348-.022-.623-.3-.623-.64v-9.446c0-.75.064-2.624-.098-3.337-.26-1.2-1.037-1.538-2.04-1.538-.844 0-1.72.562-2.076 1.463-.357.9-.325 2.4-.325 3.41v9.446c0 .356-.3.642-.67.642H73.26c-.348-.022-.623-.3-.623-.64l-.004-9.446c0-1.987.326-4.91-2.137-4.91-2.495 0-2.398 2.848-2.398 4.91l-.002 9.445c0 .356-.3.642-.67.642zm61.934-19.422c5.112 0 7.876 4.425 7.876 10.05 0 5.435-3.053 9.747-7.876 9.747-5.015 0-7.748-4.424-7.748-9.936 0-5.548 2.766-9.86 7.748-9.86zm15.274 19.422h-3.458c-.348-.022-.623-.3-.623-.64l-.005-17.824c.03-.326.317-.582.667-.582h3.22c.303.015.554.222.617.498v2.726h.065c.972-2.437 2.332-3.6 4.73-3.6 1.556 0 3.08.563 4.05 2.1.91 1.425.91 3.825.91 5.55v11.21c-.04.317-.323.562-.666.562h-3.482c-.32-.02-.58-.257-.618-.562v-9.674c0-1.95.227-4.8-2.17-4.8-.844 0-1.622.564-2.01 1.426-.486 1.087-.552 2.174-.552 3.374v9.595c-.006.356-.306.642-.676.642zm-41.574-.045c-.23.206-.56.22-.82.08-1.153-.957-1.36-1.4-1.99-2.312-1.906 1.94-3.255 2.523-5.724 2.523-2.922 0-5.196-1.803-5.196-5.41 0-2.82 1.527-4.735 3.702-5.675 1.884-.827 4.515-.977 6.528-1.202v-.45c0-.827.065-1.804-.422-2.518-.422-.638-1.234-.9-1.95-.9-1.323 0-2.5.677-2.79 2.083-.06.313-.288.623-.602.638L90.43 28.6c-.285-.065-.6-.293-.52-.726.774-4.083 4.46-5.316 7.765-5.316 1.688 0 3.897.45 5.228 1.73 1.69 1.577 1.526 3.68 1.526 5.973v5.41c0 1.627.675 2.34 1.31 3.217.22.316.27.692-.012.922-.71.594-1.97 1.688-2.662 2.305l-.008-.008zm-45.115 0c-.23.206-.562.22-.82.08-1.154-.957-1.36-1.4-1.99-2.312-1.906 1.94-3.256 2.523-5.724 2.523-2.924 0-5.197-1.803-5.197-5.41 0-2.82 1.526-4.735 3.702-5.675 1.884-.827 4.514-.977 6.527-1.202v-.45c0-.827.065-1.804-.42-2.518-.424-.638-1.236-.9-1.95-.9-1.324 0-2.5.677-2.79 2.083-.06.313-.29.623-.604.638l-3.364-.364c-.284-.065-.6-.293-.518-.726.773-4.083 4.46-5.316 7.763-5.316 1.688 0 3.896.45 5.228 1.73 1.688 1.577 1.526 3.68 1.526 5.973v5.41c0 1.627.676 2.34 1.31 3.217.222.316.272.692-.01.922-.71.594-1.97 1.688-2.663 2.305l-.007-.008zm-3.5-8.464c0 1.353.032 2.48-.65 3.683-.552.977-1.43 1.578-2.403 1.578-1.332 0-2.11-1.015-2.11-2.518 0-2.956 2.65-3.494 5.162-3.494v.75zm45.115 0c0 1.353.032 2.48-.65 3.683-.55.977-1.428 1.578-2.403 1.578-1.33 0-2.11-1.015-2.11-2.518 0-2.956 2.65-3.494 5.163-3.494v.75zm29.832-6.817c-2.54 0-2.7 3.487-2.7 5.66 0 2.176-.032 6.367 2.668 6.367 2.67 0 2.797-3.29 2.797-5.578 0-1.5-.064-3.3-.514-4.724-.385-1.237-1.157-1.724-2.25-1.724zm-57.45 28.52c.077 1.09.41 1.88 1 2.37.592.49 1.216.737 1.872.737.84 0 1.515-.364 2.03-1.092.512-.727.77-1.725.77-2.992 0-1.364-.25-2.438-.745-3.218-.497-.78-1.185-1.172-2.065-1.172-.692 0-1.316.278-1.87.834-.557.556-.887 1.274-.992 2.155v2.38zm29.375-2.23c-.014-.595-.112-1.123-.293-1.585-.182-.46-.49-.854-.922-1.18-.432-.324-.953-.487-1.56-.487-.817 0-1.51.294-2.08.882-.567.587-.887 1.377-.957 2.37h5.812zm-35 0c-.015-.595-.112-1.123-.294-1.585-.18-.46-.487-.854-.92-1.18-.433-.324-.953-.487-1.56-.487-.817 0-1.51.294-2.08.882-.568.587-.887 1.377-.957 2.37h5.812z"/></svg>