<svg xmlns="http://www.w3.org/2000/svg" width="60" height="60" viewBox="0 0 60 60"><g fill="none" fill-rule="evenodd"><rect width="58" height="44.353" x="1" y="4.412" fill="#FFF" rx="6.824"/><circle cx="43.078" cy="26.02" r="4.549" fill="#00CBFD"/><path fill="#00CBFD" d="M10.098 48.765h6.824v6.824h-6.824zM43.078 48.765h6.824v6.824h-6.824z"/><path fill="#007BDF" d="M2.264 11.245C2.264 8.1 4.8 5.55 7.924 5.55h44.15c3.13 0 5.662 2.542 5.662 5.695v30.687c0 3.145-2.536 5.695-5.66 5.695H7.925c-3.13 0-5.662-2.543-5.662-5.695V11.245zm-2.264 0v30.687c0 4.408 3.544 7.97 7.925 7.97h44.15c4.376 0 7.925-3.57 7.925-7.97V11.245c0-4.41-3.544-7.97-7.925-7.97H7.925C3.55 3.275 0 6.845 0 11.245z"/><path fill="#007BDF" d="M43.078 36.255c5.653 0 10.236-4.583 10.236-10.235 0-5.653-4.583-10.236-10.236-10.236-5.652 0-10.235 4.583-10.235 10.236 0 5.652 4.583 10.235 10.235 10.235zm0-2.275c-4.396 0-7.96-3.564-7.96-7.96 0-4.397 3.564-7.96 7.96-7.96 4.397 0 7.96 3.563 7.96 7.96 0 4.396-3.563 7.96-7.96 7.96z"/><path fill="#007BDF" d="M43.078 31.706c3.14 0 5.687-2.546 5.687-5.686s-2.546-5.687-5.687-5.687c-3.14 0-5.686 2.546-5.686 5.687 0 3.14 2.546 5.686 5.686 5.686zm0-2.275c-1.884 0-3.41-1.526-3.41-3.41 0-1.885 1.526-3.412 3.41-3.412 1.885 0 3.412 1.527 3.412 3.412 0 1.884-1.527 3.41-3.412 3.41z"/><path fill="#007BDF" d="M48.765 18.725l-3.883 3.883 1.608 1.608 3.883-3.883M39.667 27.823l-3.883 3.883 1.608 1.608 3.883-3.883M35.784 20.333l3.883 3.883 1.608-1.608-3.883-3.883M44.882 29.43l3.883 3.884 1.608-1.608-3.883-3.883M15.784 49.902v4.55h-4.55V49.9h4.55zm-5.686-2.275c-.628 0-1.137.51-1.137 1.138v6.823c0 .628.51 1.137 1.138 1.137h6.824c.628 0 1.137-.51 1.137-1.137v-6.823c0-.628-.51-1.138-1.138-1.138h-6.824zm38.667 2.275v4.55h-4.55V49.9h4.55zm-5.687-2.275c-.628 0-1.137.51-1.137 1.138v6.823c0 .628.51 1.137 1.138 1.137h6.824c.628 0 1.137-.51 1.137-1.137v-6.823c0-.628-.51-1.138-1.138-1.138h-6.824zM18.06 29.43h5.685v-2.273H18.06M18.06 26.02h5.685v-2.275H18.06M3.275 14.647v9.098H5.55v-9.098M3.275 31.706v9.098H5.55v-9.098"/></g></svg>