<svg xmlns="http://www.w3.org/2000/svg" width="60" height="60" viewBox="0 0 60 60"><g fill="none" fill-rule="evenodd"><circle cx="28.964" cy="25.857" r="24.857" fill="#FFF"/><circle cx="30" cy="25.857" r="6.214" fill="#00CBFD"/><path fill="#007BDF" d="M22.192 49.08l-3.81 10.16 1.927.724 3.81-10.162-1.928-.723zm13.688.722l3.81 10.162 1.93-.723-3.812-10.16-1.928.722z"/><path fill="#007BDF" d="M30 51.433c14.213 0 25.735-11.52 25.735-25.734C55.735 11.485 44.213-.037 30-.037S4.265 11.486 4.265 25.7C4.265 39.91 15.787 51.432 30 51.432zm0-2.058c-13.076 0-23.676-10.6-23.676-23.676 0-13.077 10.6-23.677 23.676-23.677 13.076 0 23.676 10.6 23.676 23.676 0 13.075-10.6 23.675-23.676 23.675z"/><path fill="#007BDF" d="M30 45.536c10.868 0 19.68-8.81 19.68-19.68C49.68 14.99 40.867 6.18 30 6.18s-19.68 8.81-19.68 19.677c0 10.868 8.812 19.68 19.68 19.68zm0-2.072c-9.724 0-17.607-7.883-17.607-17.607S20.276 8.25 30 8.25s17.607 7.883 17.607 17.607S39.724 43.464 30 43.464z"/><path fill="#007BDF" d="M30 39.32c7.436 0 13.464-6.027 13.464-13.463 0-7.436-6.028-13.464-13.464-13.464-7.436 0-13.464 6.028-13.464 13.464 0 7.436 6.028 13.464 13.464 13.464zm0-2.07c-6.292 0-11.393-5.1-11.393-11.393 0-6.292 5.1-11.393 11.393-11.393 6.292 0 11.393 5.1 11.393 11.393 0 6.292-5.1 11.393-11.393 11.393z"/><path fill="#007BDF" d="M30 33.107c4.004 0 7.25-3.246 7.25-7.25s-3.246-7.25-7.25-7.25-7.25 3.246-7.25 7.25 3.246 7.25 7.25 7.25zm0-2.07c-2.86 0-5.18-2.32-5.18-5.18S27.14 20.68 30 20.68s5.18 2.317 5.18 5.177c0 2.86-2.32 5.18-5.18 5.18z"/><path fill="#007BDF" d="M51.718 48.63l-.113 3.494c-.018.57-.497 1.02-1.068 1-.572-.017-1.02-.495-1.002-1.067l.13-4.046L28.89 26.478c-.396-.41-.384-1.067.027-1.464.412-.397 1.068-.385 1.465.026l20.76 21.52h4.338c.572 0 1.036.463 1.036 1.035 0 .572-.464 1.036-1.036 1.036h-3.762z"/></g></svg>